<svg width="222" height="63" viewBox="0 0 222 63" fill="none" xmlns="http://www.w3.org/2000/svg">
<path d="M203.704 62.8326H7.83477C3.52569 62.8326 0 59.2983 0 54.9786V7.85412C0 3.53433 3.52562 0 7.83477 0H203.704C208.013 0 211.538 3.53433 211.538 7.85412V54.9785C211.538 59.2983 208.013 62.8326 203.704 62.8326" fill="black"/>
<path d="M213.704 0H17.8348C13.5257 0 10 3.53433 10 7.85412V54.9785C10 59.2983 13.5256 62.8326 17.8348 62.8326H213.704C218.013 62.8326 221.538 59.2983 221.538 54.9786V7.85412C221.538 3.53433 218.013 0 213.704 0H213.704ZM213.704 1.25661C217.333 1.25661 220.285 4.21671 220.285 7.85412V54.9785C220.285 58.6166 217.333 61.5767 213.704 61.5767H17.8348C14.2064 61.5767 11.2536 58.6166 11.2536 54.9786V7.85412C11.2536 4.21671 14.2063 1.25668 17.8348 1.25668H213.704" fill="#A6A6A6"/>
<path d="M84.3024 16.0905C84.3024 17.4065 83.9136 18.4545 83.135 19.2363C82.2505 20.1659 81.0979 20.6311 79.6809 20.6311C78.3239 20.6311 77.1701 20.1599 76.2213 19.2161C75.2709 18.273 74.7965 17.1035 74.7965 15.7081C74.7965 14.3122 75.2709 13.1434 76.2213 12.1995C77.1701 11.2565 78.3239 10.7845 79.6809 10.7845C80.3542 10.7845 80.9989 10.9166 81.6109 11.1798C82.2229 11.4437 82.7139 11.794 83.0812 12.2327L82.2548 13.0616C81.6323 12.3161 80.7754 11.9437 79.6809 11.9437C78.6913 11.9437 77.8355 12.2923 77.1133 12.9899C76.3909 13.6882 76.0298 14.5938 76.0298 15.7081C76.0298 16.8225 76.3909 17.728 77.1133 18.4264C77.8355 19.1241 78.6912 19.4726 79.6809 19.4726C80.7307 19.4726 81.606 19.1222 82.3068 18.4203C82.7617 17.963 83.0247 17.3275 83.0951 16.5113H79.6808V15.3792H84.2368C84.2808 15.6254 84.3022 15.8616 84.3022 16.0905" fill="white"/>
<path d="M84.3024 16.0905H84.1456C84.1444 17.3765 83.7697 18.3754 83.0241 19.1253L83.0225 19.1265L83.0218 19.1278C82.1655 20.0254 81.0648 20.4721 79.6808 20.474C78.3601 20.4721 77.2546 20.0205 76.3315 19.105C75.4104 18.1877 74.955 17.0678 74.9532 15.7081C74.955 14.3478 75.4104 13.2286 76.3315 12.3119C77.2546 11.3957 78.3601 10.9435 79.6808 10.9416C80.334 10.9416 80.9559 11.0694 81.549 11.3239C82.1427 11.5805 82.6117 11.9167 82.9611 12.334L83.0811 12.2327L82.9704 12.1216L82.144 12.9511L82.2547 13.0616L82.3754 12.9611C81.724 12.1787 80.8097 11.7842 79.6809 11.7866C78.6545 11.7853 77.7517 12.153 77.0048 12.8771C76.2508 13.6035 75.8719 14.5601 75.8732 15.7081C75.8719 16.8562 76.2508 17.8127 77.0048 18.5392C77.7517 19.2633 78.6545 19.6309 79.6808 19.6297C80.7655 19.6316 81.6898 19.2627 82.4176 18.5313C82.9036 18.0428 83.1791 17.3661 83.2513 16.5248L83.2659 16.3542H79.8376V15.5363H84.2368V15.3792L84.0824 15.4068C84.1253 15.645 84.1456 15.8713 84.1456 16.0905H84.459C84.459 15.8517 84.4369 15.6063 84.391 15.3511L84.3678 15.2221H79.5242V16.6684H83.0951V16.5113L82.9391 16.4978C82.87 17.2882 82.619 17.8834 82.196 18.3093C81.5227 18.9817 80.6964 19.3136 79.6809 19.3155C78.728 19.3142 77.9194 18.9853 77.2222 18.3135C76.5318 17.644 76.1884 16.7893 76.1866 15.7081C76.1884 14.6269 76.5318 13.7722 77.2222 13.1028C77.9194 12.4309 78.7279 12.102 79.6809 12.1007C80.7405 12.1033 81.5406 12.4542 82.1349 13.1629L82.2451 13.2942L83.192 12.3438L83.2936 12.242L83.2011 12.132C82.8161 11.6719 82.3032 11.3067 81.6727 11.0356C81.0411 10.7637 80.3745 10.6274 79.6809 10.6274C78.2879 10.6262 77.0857 11.1171 76.1106 12.0885C75.1319 13.058 74.6386 14.2766 74.64 15.7081C74.6386 17.139 75.1319 18.3583 76.1113 19.3284C77.0857 20.2991 78.2879 20.7894 79.6809 20.7882C81.1316 20.7894 82.335 20.3064 83.2483 19.3449L83.1349 19.2363L83.2457 19.3474C84.0574 18.5344 84.4601 17.436 84.459 16.0905H84.3023H84.3024ZM91.5249 12.1535H87.2433V15.1419H91.1045V16.2744H87.2433V19.2627H91.5249V20.4206H86.0363V10.9957H91.5249V12.1535Z" fill="white"/>
<path d="M91.5249 12.1537V11.9966H87.0867V15.2991H90.9478V16.117L87.0866 16.1174V19.4199H91.3681V20.2636H86.193V11.1529H91.3681V12.1537H91.5249V11.9966V12.1537H91.6815V10.8387H85.8796V20.5778H91.6815V19.1058H87.4V16.4316H91.2611V14.9849H87.4V12.3107H91.6815V12.1537H91.5249ZM96.6193 20.4208H95.4104V12.1536H92.7845V10.9958H99.2452V12.1536H96.6193V20.4206" fill="white"/>
<path d="M96.6194 20.4208V20.2636H95.5672V11.9966H92.9413V11.153H99.0886V11.9966H96.4627V20.4207H96.6194V20.2636V20.4207H96.7761V12.3107H99.402V10.8387H92.6279V12.3107H95.2538V20.5777H96.7761V20.4206H96.6194V20.4208ZM103.92 20.4208V10.9958H105.127V20.4206H103.92" fill="white"/>
<path d="M103.92 20.4208H104.077V11.1529H104.971V20.2636H103.92V20.4207H104.077H103.92V20.5778H105.284V10.8387H103.763V20.5778H103.92V20.4207V20.4208ZM110.486 20.4208H109.277V12.1536H106.652V10.9958H113.112V12.1536H110.486V20.4206" fill="white"/>
<path d="M110.486 20.4206V20.2635H109.434V11.9965H106.808V11.1528H112.955V11.9965H110.33V20.4206H110.486V20.2635V20.4206H110.643V12.3106H113.269V10.8386H106.495V12.3106H109.121V20.5776H110.643V20.4205H110.486V20.4206ZM119.341 18.4136C120.037 19.1198 120.888 19.4725 121.895 19.4725C122.902 19.4725 123.754 19.1198 124.449 18.4136C125.145 17.7073 125.494 16.8046 125.494 15.7081C125.494 14.6118 125.145 13.709 124.449 13.0027C123.754 12.2965 122.902 11.9437 121.895 11.9437C120.888 11.9437 120.037 12.2965 119.341 13.0027C118.646 13.709 118.297 14.6117 118.297 15.7081C118.297 16.8046 118.646 17.7073 119.341 18.4136ZM125.342 19.2026C124.418 20.1554 123.269 20.6311 121.895 20.6311C120.52 20.6311 119.371 20.1554 118.449 19.2026C117.524 18.2508 117.064 17.0857 117.064 15.7081C117.064 14.3305 117.524 13.1653 118.449 12.2137C119.371 11.2606 120.52 10.7845 121.895 10.7845C123.261 10.7845 124.408 11.2632 125.336 12.2198C126.264 13.1764 126.728 14.3391 126.728 15.7081C126.728 17.0857 126.265 18.2508 125.342 19.2026Z" fill="white"/>
<path d="M119.341 18.4136L119.229 18.524C119.951 19.2585 120.851 19.6316 121.895 19.6297C122.938 19.6316 123.84 19.2585 124.56 18.524C125.287 17.7888 125.652 16.8377 125.651 15.7081C125.652 14.5786 125.287 13.6274 124.56 12.8922C123.84 12.1578 122.938 11.7847 121.895 11.7866C120.851 11.7847 119.951 12.1578 119.229 12.8922C118.505 13.6274 118.139 14.5786 118.14 15.7081C118.139 16.8377 118.505 17.7888 119.229 18.524L119.341 18.4136L119.452 18.3031C118.788 17.625 118.455 16.7721 118.454 15.7081C118.455 14.6442 118.788 13.7913 119.452 13.1131C120.123 12.4352 120.924 12.1026 121.895 12.1008C122.865 12.1026 123.668 12.4352 124.337 13.1131C125.003 13.7913 125.336 14.6442 125.337 15.7081C125.336 16.772 125.003 17.625 124.337 18.3031C123.668 18.9811 122.865 19.3136 121.895 19.3154C120.924 19.3136 120.123 18.9811 119.452 18.3031L119.341 18.4136ZM125.342 19.2026L125.23 19.0934C124.332 20.0162 123.233 20.4722 121.895 20.474C120.556 20.4721 119.458 20.0162 118.561 19.0934L118.557 19.0885L118.561 19.0934C117.664 18.1674 117.222 17.0507 117.221 15.7081C117.222 14.3655 117.664 13.2488 118.561 12.3229C119.458 11.4 120.556 10.9435 121.895 10.9417C123.224 10.9435 124.321 11.4019 125.224 12.3296C126.124 13.2598 126.569 14.3748 126.571 15.7081C126.569 17.0507 126.125 18.1674 125.23 19.0934L125.342 19.2026L125.455 19.3117C126.405 18.3337 126.885 17.1206 126.884 15.7081C126.885 14.3037 126.403 13.093 125.449 12.1107C124.494 11.1244 123.298 10.6258 121.895 10.6274C120.485 10.6258 119.285 11.1221 118.336 12.1045V12.1038C117.385 13.0825 116.906 14.2956 116.907 15.7081C116.906 17.1206 117.385 18.3337 118.336 19.3123L118.341 19.3168L118.336 19.3117C119.285 20.2941 120.485 20.7894 121.895 20.7881C123.305 20.7894 124.504 20.2941 125.455 19.3117L125.342 19.2026ZM128.423 20.4206V10.9956H129.893L134.463 18.3275H134.515L134.463 16.5112V10.9956H135.671V20.4205H134.41L129.63 12.7333H129.578L129.63 14.5502V20.4205H128.423" fill="white"/>
<path d="M128.423 20.4208H128.58V11.1529H129.806L134.376 18.4848H134.675L134.619 16.5091V11.153H135.515V20.2636H134.497L129.717 12.5764H129.417L129.473 14.553V20.2636H128.423V20.4207H128.58H128.423V20.5778H129.787V14.5479L129.735 12.7292L129.578 12.7335V12.8906H129.63V12.7335L129.497 12.817L134.324 20.5778H135.828V10.8387H134.306V16.5133L134.358 18.332L134.515 18.3277V18.1707H134.462V18.3277L134.595 18.2444L129.98 10.8387H128.266V20.5778H128.423V20.4207L128.423 20.4208ZM177.564 47.1246H180.487V27.4875H177.563L177.564 47.1246ZM203.899 34.5613L200.548 43.0749H200.447L196.969 34.5612H193.819L199.035 46.4606L196.061 53.0796H199.112L207.151 34.5612L203.899 34.5613ZM187.318 44.8942C186.359 44.8942 185.024 44.4143 185.024 43.2265C185.024 41.7108 186.688 41.1298 188.123 41.1298C189.41 41.1298 190.013 41.4076 190.795 41.787C190.568 43.6056 189.005 44.8942 187.318 44.8942ZM187.67 34.1316C185.553 34.1316 183.361 35.0667 182.454 37.1383L185.049 38.2244C185.604 37.1383 186.636 36.7842 187.721 36.7842C189.233 36.7842 190.77 37.6942 190.795 39.3111V39.513C190.265 39.2098 189.132 38.7551 187.746 38.7551C184.949 38.7551 182.1 40.2958 182.1 43.1761C182.1 45.8036 184.394 47.4964 186.964 47.4964C188.93 47.4964 190.013 46.6122 190.695 45.5766H190.795V47.0921H193.617V39.5632C193.617 36.0774 191.022 34.1316 187.67 34.1316ZM169.6 36.9517H165.442V30.2206H169.6C171.786 30.2206 173.027 32.0349 173.027 33.5861C173.027 35.1078 171.786 36.9517 169.6 36.9517ZM169.525 27.4875H162.519V47.1246H165.442V39.6847H169.525C172.766 39.6847 175.951 37.3327 175.951 33.5861C175.951 29.8395 172.766 27.4875 169.525 27.4875ZM131.321 44.8978C129.301 44.8978 127.61 43.2025 127.61 40.8739C127.61 38.5208 129.301 36.7996 131.321 36.7996C133.315 36.7996 134.881 38.5207 134.881 40.8739C134.881 43.2025 133.315 44.8978 131.321 44.8978H131.321ZM134.679 35.6608H134.578C133.921 34.8765 132.659 34.1679 131.068 34.1679C127.736 34.1679 124.682 37.1033 124.682 40.8739C124.682 44.6193 127.736 47.5296 131.068 47.5296C132.659 47.5296 133.921 46.8208 134.578 46.0115H134.679V46.973C134.679 49.5294 133.315 50.8958 131.119 50.8958C129.327 50.8958 128.216 49.6048 127.761 48.5168L125.212 49.5796C125.944 51.351 127.888 53.5276 131.119 53.5276C134.552 53.5276 137.456 51.5026 137.456 46.5681V34.5729H134.679V35.6608ZM139.475 47.1246H142.403V27.4868H139.475V47.1246ZM146.72 40.6463C146.644 38.0648 148.714 36.7492 150.204 36.7492C151.366 36.7492 152.35 37.3309 152.677 38.1668L146.72 40.6463ZM155.808 38.4194C155.253 36.9259 153.561 34.1679 150.103 34.1679C146.669 34.1679 143.817 36.8756 143.817 40.8487C143.817 44.5942 146.644 47.5296 150.431 47.5296C153.486 47.5296 155.253 45.6568 155.985 44.5689L153.713 43.0502C152.956 44.1639 151.92 44.8978 150.431 44.8978C148.941 44.8978 147.881 44.2143 147.199 42.8735L156.11 39.1785L155.808 38.4194ZM84.8122 36.2178V39.052H91.5775C91.3756 40.6462 90.8454 41.8102 90.0375 42.6201C89.0533 43.6074 87.5133 44.6954 84.8122 44.6954C80.6468 44.6954 77.3905 41.3297 77.3905 37.1541C77.3905 32.9787 80.6468 29.6126 84.8122 29.6126C87.0591 29.6126 88.6995 30.4985 89.9114 31.6373L91.9057 29.6382C90.2145 28.0183 87.9675 26.7783 84.8122 26.7783C79.1068 26.7783 74.3105 31.4349 74.3105 37.1541C74.3105 42.8735 79.1068 47.5296 84.8122 47.5296C87.8922 47.5296 90.2145 46.5178 92.0318 44.6193C93.8999 42.7466 94.4808 40.1149 94.4808 37.9894C94.4808 37.3309 94.4305 36.7241 94.3289 36.2178H84.8122ZM102.172 44.8978C100.152 44.8978 98.4104 43.2275 98.4104 40.8487C98.4104 38.4446 100.152 36.7996 102.172 36.7996C104.191 36.7996 105.933 38.4446 105.933 40.8487C105.933 43.2276 104.191 44.8978 102.172 44.8978ZM102.172 34.1679C98.4862 34.1679 95.4821 36.9768 95.4821 40.8487C95.4821 44.6954 98.4862 47.5296 102.172 47.5296C105.858 47.5296 108.862 44.6954 108.862 40.8487C108.862 36.9768 105.858 34.1679 102.172 34.1679ZM116.766 44.8978C114.746 44.8978 113.004 43.2275 113.004 40.8487C113.004 38.4446 114.746 36.7996 116.766 36.7996C118.785 36.7996 120.527 38.4446 120.527 40.8487C120.527 43.2276 118.785 44.8978 116.766 44.8978H116.766ZM116.766 34.1679C113.08 34.1679 110.076 36.9768 110.076 40.8487C110.076 44.6954 113.08 47.5296 116.766 47.5296C120.451 47.5296 123.455 44.6954 123.455 40.8487C123.455 36.9768 120.451 34.1679 116.766 34.1679H116.766Z" fill="white"/>
<path d="M26.4664 11.956C25.9406 12.4316 25.6267 13.2249 25.6267 14.2779V14.0398V48.788V48.5591C25.6267 49.5316 25.8959 50.2826 26.3519 50.7663L26.4683 50.8779V50.8784C26.8373 51.2123 27.3106 51.3895 27.8529 51.389C28.3829 51.389 28.9791 51.2196 29.6084 50.862L52.353 37.907L60.1656 33.4565C61.1578 32.8915 61.7149 32.1625 61.808 31.42V31.4169C61.7149 30.6727 61.1578 29.9443 60.1657 29.3792L52.3523 24.9293L29.6084 11.9743C28.9778 11.616 28.3812 11.446 27.8498 11.446C27.3081 11.446 26.8355 11.6227 26.4666 11.956H26.4664Z" fill="#00C1FF"/>
<path d="M26.4684 50.8778L26.3519 50.7661C25.8959 50.2825 25.6267 49.5315 25.6267 48.559V48.7879V14.0483V14.2777C25.6267 13.2247 25.9406 12.4314 26.4664 11.9558L45.8807 31.4175L26.4684 50.8778Z" fill="url(#paint0_linear_7:3)"/>
<path d="M52.353 37.907L45.8807 31.4176L52.3524 24.9293L60.1657 29.3792C61.1578 29.9444 61.7149 30.6727 61.808 31.417V31.42C61.7149 32.1625 61.1578 32.8915 60.1657 33.4565L52.353 37.9069" fill="url(#paint1_linear_7:3)"/>
<path d="M27.8529 51.389C27.3107 51.3895 26.8374 51.2122 26.4684 50.8784V50.8779L45.8808 31.4176L52.3531 37.9069L29.6084 50.862C28.9791 51.2197 28.3829 51.389 27.8529 51.389Z" fill="url(#paint2_linear_7:3)"/>
<path d="M45.8807 31.4177L26.4664 11.9561C26.8354 11.6229 27.308 11.4462 27.8497 11.4462C28.381 11.4462 28.9777 11.6161 29.6083 11.9745L52.3523 24.9294L45.8806 31.4177" fill="url(#paint3_linear_7:3)"/>
<path d="M27.8536 51.619C27.3113 51.619 26.8374 51.4417 26.4684 51.1079L26.4677 51.1085C26.4662 51.1069 26.4646 51.1055 26.4629 51.1042L26.3619 51.0054C26.3588 51.0023 26.3558 50.9987 26.3521 50.9951L26.4684 50.8784C26.8375 51.2122 27.3106 51.3895 27.8531 51.3889C28.3829 51.3889 28.9792 51.2196 29.6084 50.8619L52.3531 37.9069L52.4988 38.053L52.3512 38.137L29.6084 51.0913C29.0349 51.4172 28.4894 51.5871 27.9967 51.6154C27.9491 51.6178 27.9013 51.6189 27.8536 51.6189" fill="url(#paint4_linear_7:3)"/>
<path d="M26.3519 50.9951C25.896 50.5115 25.6267 49.7611 25.6267 48.788V48.5591C25.6267 49.5316 25.896 50.2826 26.3519 50.7662L26.4683 50.8779L26.3519 50.9951Z" fill="url(#paint5_linear_7:3)"/>
<path d="M52.4987 38.0529L52.353 37.9068L60.1656 33.4564C61.1578 32.8914 61.7149 32.1624 61.808 31.4199C61.808 31.6924 61.7473 31.9648 61.6268 32.2299C61.3838 32.7644 60.8966 33.2693 60.1657 33.6859L52.4987 38.053" fill="url(#paint6_linear_7:3)"/>
<path d="M61.808 31.4171C61.7149 30.6728 61.1578 29.9445 60.1657 29.3793L52.3524 24.9295L52.4981 24.7833H52.4987L60.1657 29.1504C61.2596 29.7738 61.8073 30.5954 61.808 31.4171Z" fill="url(#paint7_linear_7:3)"/>
<path d="M25.6267 14.278V14.0379C25.6267 13.9514 25.629 13.8667 25.6335 13.7846V13.7808C25.6335 13.7797 25.6335 13.7785 25.6339 13.7772V13.768C25.6811 12.9303 25.9406 12.277 26.3519 11.8407L26.4664 11.956C25.9406 12.4317 25.6267 13.2249 25.6267 14.278Z" fill="url(#paint8_linear_7:3)"/>
<path d="M52.3523 24.9293L29.6083 11.9742C28.9778 11.6159 28.3811 11.446 27.8498 11.446C27.3081 11.446 26.8355 11.6227 26.4665 11.9559L26.3519 11.8406C26.3877 11.8026 26.4249 11.766 26.4634 11.7308C26.4646 11.7295 26.4665 11.7283 26.4677 11.7271C26.8338 11.3964 27.3013 11.2197 27.8382 11.2165H27.8498C28.3811 11.2165 28.9778 11.3865 29.6083 11.7449L52.4987 24.7827L52.498 24.7832L52.3523 24.9293Z" fill="url(#paint9_linear_7:3)"/>
<defs>
<linearGradient id="paint0_linear_7:3" x1="38.0336" y1="13.6811" x2="21.2887" y2="30.4388" gradientUnits="userSpaceOnUse">
<stop stop-color="#00A0FF"/>
<stop offset="0.00657" stop-color="#00A1FF"/>
<stop offset="0.2601" stop-color="#00BEFF"/>
<stop offset="0.5122" stop-color="#00D2FF"/>
<stop offset="0.7604" stop-color="#00DFFF"/>
<stop offset="1" stop-color="#00E3FF"/>
</linearGradient>
<linearGradient id="paint1_linear_7:3" x1="63.0169" y1="31.3055" x2="25.1013" y2="31.3055" gradientUnits="userSpaceOnUse">
<stop stop-color="#FFE000"/>
<stop offset="0.4087" stop-color="#FFBD00"/>
<stop offset="0.7754" stop-color="#FFA500"/>
<stop offset="1" stop-color="#FF9C00"/>
</linearGradient>
<linearGradient id="paint2_linear_7:3" x1="48.9169" y1="37.5874" x2="20.5415" y2="65.777" gradientUnits="userSpaceOnUse">
<stop stop-color="#FF3A44"/>
<stop offset="1" stop-color="#C31162"/>
</linearGradient>
<linearGradient id="paint3_linear_7:3" x1="21.4628" y1="9.07082" x2="34.109" y2="21.6536" gradientUnits="userSpaceOnUse">
<stop stop-color="#32A071"/>
<stop offset="0.0685" stop-color="#2DA771"/>
<stop offset="0.4762" stop-color="#15CF74"/>
<stop offset="0.8009" stop-color="#06E775"/>
<stop offset="1" stop-color="#00F076"/>
</linearGradient>
<linearGradient id="paint4_linear_7:3" x1="48.9028" y1="42.0887" x2="26.1782" y2="64.8307" gradientUnits="userSpaceOnUse">
<stop stop-color="#CC2E36"/>
<stop offset="1" stop-color="#9C0E4E"/>
</linearGradient>
<linearGradient id="paint5_linear_7:3" x1="28.213" y1="13.6811" x2="13.4609" y2="28.4449" gradientUnits="userSpaceOnUse">
<stop stop-color="#008DE0"/>
<stop offset="0.00657" stop-color="#008DE0"/>
<stop offset="0.2601" stop-color="#00A7E0"/>
<stop offset="0.5122" stop-color="#00B8E0"/>
<stop offset="0.7604" stop-color="#00C4E0"/>
<stop offset="1" stop-color="#00C7E0"/>
</linearGradient>
<linearGradient id="paint6_linear_7:3" x1="63.0169" y1="31.4184" x2="25.1013" y2="31.4184" gradientUnits="userSpaceOnUse">
<stop stop-color="#E0C500"/>
<stop offset="0.4087" stop-color="#E0A600"/>
<stop offset="0.7754" stop-color="#E09100"/>
<stop offset="1" stop-color="#E08900"/>
</linearGradient>
<linearGradient id="paint7_linear_7:3" x1="63.0169" y1="31.4187" x2="25.1014" y2="31.4187" gradientUnits="userSpaceOnUse">
<stop stop-color="#FFE840"/>
<stop offset="0.4087" stop-color="#FFCE40"/>
<stop offset="0.7754" stop-color="#FFBC40"/>
<stop offset="1" stop-color="#FFB540"/>
</linearGradient>
<linearGradient id="paint8_linear_7:3" x1="28.197" y1="13.708" x2="13.9887" y2="27.3112" gradientUnits="userSpaceOnUse">
<stop stop-color="#40B8FF"/>
<stop offset="0.00657" stop-color="#40B9FF"/>
<stop offset="0.2601" stop-color="#40CEFF"/>
<stop offset="0.5122" stop-color="#40DDFF"/>
<stop offset="0.7604" stop-color="#40E7FF"/>
<stop offset="1" stop-color="#40EAFF"/>
</linearGradient>
<linearGradient id="paint9_linear_7:3" x1="21.4345" y1="13.1864" x2="31.582" y2="23.3418" gradientUnits="userSpaceOnUse">
<stop stop-color="#65B895"/>
<stop offset="0.0685" stop-color="#62BD95"/>
<stop offset="0.4762" stop-color="#50DB97"/>
<stop offset="0.8009" stop-color="#44ED98"/>
<stop offset="1" stop-color="#40F498"/>
</linearGradient>
</defs>
</svg>
